<?xml version="1.0" encoding="utf-8"?>
<!-- Generator: Adobe Illustrator 19.0.0, SVG Export Plug-In . SVG Version: 6.00 Build 0)  -->
<svg version="1.1" id="Layer_1" xmlns="http://www.w3.org/2000/svg" xmlns:xlink="http://www.w3.org/1999/xlink" x="0px" y="0px"
	 viewBox="0 0 500 167" style="enable-background:new 0 0 500 167;" xml:space="preserve">
<style type="text/css">
	.st0{fill:#FFFFFF;}
	.st1{fill-rule:evenodd;clip-rule:evenodd;fill:#FFFFFF;}
</style>
<g id="XMLID_2_">
	<path id="XMLID_26_" class="st0" d="M244.7,25.5c-14.5-10-32-17.9-51.2-22.6c-4.8-1.1-9.5-2.2-14.5-2.9c-0.2,0-0.4,0-0.6-0.1
		c-7,5.2-13.5,10.9-19.3,17c6.4-0.9,13-1.5,19.7-1.8C202.4,14.3,224.6,18.2,244.7,25.5L244.7,25.5z"/>
	<path id="XMLID_25_" class="st0" d="M153.3,72.3c9.1-6.7,19.1-12.7,29.8-17.8c26.5-12.5,54.3-17.8,80.4-16.6
		c-22.5-10-48.4-15.2-75.8-14.2c-13.5,0.5-26.5,2.5-38.8,5.7c-6.1,8.3-11.2,17.1-15.1,26.5C139.8,61.7,146.3,67.2,153.3,72.3
		L153.3,72.3z"/>
	<path id="XMLID_24_" class="st0" d="M125.3,98.4c7.2-8.5,15.4-16.3,24.6-23.4c-6.3-4.5-12.2-9.4-17.7-14.6
		C127.7,72.4,125.3,85.2,125.3,98.4L125.3,98.4z"/>
	<path id="XMLID_23_" class="st0" d="M132,49.5c3-6.3,6.4-12.4,10.1-18.1c-7.8,2.4-15.3,5.3-22.4,8.6c3.4,4.3,7,8.5,10.9,12.5
		C131.1,51.5,131.5,50.5,132,49.5L132,49.5z"/>
	<path id="XMLID_22_" class="st0" d="M285.1,153.1c-0.3,0-0.6,0-1,0c-13.5,0-23.2-8.6-23.2-20.5v-0.3c0-11.3,9.8-20.2,22.2-20.2
		c0.7,0,1.3,0,1.9,0.1V98.6c-0.6,0-1.2,0-1.8,0c-24.4,0-42.9,14.6-42.9,34.1v0.3c0,19,18.7,33.8,42.6,33.8c0.7,0,1.4,0,2.1,0V153.1
		L285.1,153.1z"/>
	<path id="XMLID_21_" class="st0" d="M38,124.5c-14.4-3.1-16.5-4.6-16.5-9.1v-0.2c0-3.4,3.7-6,10.7-6c3.6,0,8.3,1,11.6,2.2V96.8
		c-3.1-0.5-7.7-1.1-11.3-1.1c-17,0-29.2,8.3-29.2,20.9v0.2c0,13.8,10.8,17.6,27.6,21.2c13.9,3,15.3,5,15.3,8.8v0.2
		c0,4.1-4.5,6.5-12,6.5c-9.5,0-15.9-3.3-23.4-8.4L0,155.9c10,7.4,21.2,11.1,33.9,11.1c18,0,30.6-7.7,30.6-21.5v-0.2
		C64.5,133.3,54.9,128.2,38,124.5L38,124.5z"/>
	<path id="XMLID_18_" class="st0" d="M94,105.6c-18.7,0-31.8,13.4-31.8,29.6v0.2c0,17.4,14.3,29.4,33.6,29.4c0.6,0,2.3-0.1,2.9-0.1
		v-13c-0.5,0-2.2,0.1-2.7,0.1c-8.2,0-13.9-3.8-15.7-11.1h44.4c0.1-1.5,0.2-2.4,0.2-4v-0.2C124.9,120.4,115.5,105.6,94,105.6
		L94,105.6z M80.1,130.7c1.4-7.3,6.4-12.1,13.9-12.1c7.7,0,12.5,4.9,13.6,12.1H80.1L80.1,130.7z"/>
	<path id="XMLID_17_" class="st0" d="M182.8,133.7c0-15.4-9.4-27.4-29.3-27.4c-19.9,0-29.3,12-29.3,27.4v30.1h18.4v-31.2
		c0.3-5.7,2.6-12.4,10.9-12.4c8.3,0,10.7,6.7,11,12.4v31.2h18.3V133.7L182.8,133.7z"/>
	<path id="XMLID_14_" class="st0" d="M223.9,143.5c-1.6,8.3-10.2,9.6-12.1,9.7c-13.9,0.7-14.4-8.8-9.7-11.6
		c6.3-3.9,21.9-1.7,21.9-1.7C224,140.4,224.1,141.8,223.9,143.5L223.9,143.5z M212.7,105.9c-0.8,0-3.6,0-4.4,0v13.8
		c3.6,0,8.4,0.6,10.6,1.8c3.2,1.7,4.8,4.5,4.9,8.3c-4.3-0.5-9.3-0.9-13.5-1c-17.4-0.5-26,5.3-27.7,14.5c0,0.2-0.1,0.4-0.1,0.5
		c0,0.1,0,0.1,0,0.2c-0.1,0.9-0.2,1.8-0.2,2.8v0.2c0,11.3,10,17.4,22.1,17.4c8.9,0,15-2.9,19.4-7.2v6.6h17.6v-33.4
		C241.4,115.1,232.6,105.9,212.7,105.9L212.7,105.9z"/>
	<path id="XMLID_3_" class="st1" d="M412.1,97.5l-35.7,66.8h-33.4l11.2-19.8C373.4,124,392.1,108.8,412.1,97.5L412.1,97.5z
		 M390.5,78.5h-49.8V53.2h82.8v15C412.8,70.7,401.9,74.1,390.5,78.5L390.5,78.5z M459.2,52.6c9.2,0,17.7,3.5,24.5,9.4
		c-18.5-0.3-35.9,1.1-53.7,4.8C437.4,58,447.7,52.6,459.2,52.6L459.2,52.6z M491.4,70.7c5.4,7.9,8.6,17.9,8.6,28.8
		c0,25.9-18.3,46.9-40.8,46.9c-22.5,0-40.8-21-40.8-46.9c0-1.9,0.1-3.8,0.3-5.6c9.4-4.9,19.2-9,29.4-12.5c-3.1,4.5-5,11-5,18.1
		c0,13.8,7.2,24.9,16.1,24.9c8.9,0,16.1-11.2,16.1-24.9c0-10.5-4.2-19.5-10.1-23.2C473.5,74.1,482.2,72.3,491.4,70.7L491.4,70.7z
		 M390.1,159.9c0-1.1,0.9-1.6,1.9-1.8c1-0.3,2.2-0.4,2.8-0.8c0.1,2.9-0.6,4.2-2.8,4.2C390.9,161.5,390.1,161.1,390.1,159.9
		L390.1,159.9z M390.3,154.1c0.2-1.2,1-1.8,2.3-1.8c0.9,0,2.2,0.4,2.2,1.5c0,0.9-0.4,1.2-1.2,1.3c-3.2,0.7-8.1,0.3-8.1,4.9
		c0,2.9,2.1,4.3,4.8,4.3c1.7,0,3.4-0.5,4.6-1.8c0.1,0.5,0.1,0.9,0.3,1.3h4.6c-0.5-1.1-0.5-2.4-0.5-3.7v-6.2c0-4-3.2-4.8-6.5-4.8
		c-1.6,0-3.2,0.3-4.4,1c-1.2,0.7-2.1,2-2.2,3.8H390.3L390.3,154.1z M402.2,164h4.6v-7.8c0-1.6,0.8-3.1,2.5-3.1c2.5,0,2.3,2,2.3,3.9
		v6.9h4.6v-9.2c0-2.1-0.4-5.5-5-5.5c-1.7,0-3.5,0.9-4.4,2.4h-0.1v-2h-4.4V164L402.2,164z M423,156.9c0-1.8,0.6-4,2.8-4
		c2.1,0,2.8,2.2,2.8,4c0,1.8-0.7,4-2.8,4C423.6,160.8,423,158.7,423,156.9L423,156.9z M418.4,156.9c0,4.3,3,7.5,7.3,7.5
		c4.3,0,7.4-3.2,7.4-7.5c0-4.3-3-7.6-7.4-7.6C421.4,149.3,418.4,152.6,418.4,156.9L418.4,156.9z M434.7,159.3c0.1,4,3.5,5.1,6.8,5.1
		c3.1,0,6.7-1.3,6.7-5.1c0-1.2-0.7-3.3-3.5-3.8c-2.1-0.5-5.2-0.7-5.2-2.1c0-1,1.2-1.1,2-1.1c0.6,0,1.1,0.1,1.4,0.4
		c0.4,0.2,0.6,0.6,0.6,1.2h4.2c-0.2-3.7-3.4-4.6-6.4-4.6c-2.7,0-6.4,0.9-6.4,4.4c0,3.8,3.6,3.9,6.5,4.7c0.8,0.2,2.2,0.4,2.2,1.5
		c0,1.1-1.3,1.5-2.1,1.5c-0.6,0-1.3-0.2-1.7-0.5c-0.5-0.4-0.8-0.9-0.8-1.6H434.7L434.7,159.3z"/>
</g>
</svg>
